<svg id="Capa_1" enable-background="new 0 0 511.989 511.989" height="512" viewBox="0 0 511.989 511.989" width="512" xmlns="http://www.w3.org/2000/svg"><g><g><path d="m488.034 502.536h-318.612c-9.088 0-16.455-7.367-16.455-16.454v-38.962c0-9.087 7.367-16.454 16.455-16.454h318.612c9.087 0 16.454 7.367 16.454 16.454v38.962c.001 9.087-7.366 16.454-16.454 16.454z" fill="#bed6e3"/></g><g><path d="m488.034 430.665h-318.612c-9.088 0-16.455-7.367-16.455-16.454v-38.962c0-9.088 7.367-16.454 16.455-16.454h318.612c9.087 0 16.454 7.367 16.454 16.454v38.962c.001 9.087-7.366 16.454-16.454 16.454z" fill="#a4bbcf"/></g><g><path d="m488.034 358.794h-318.612c-9.088 0-16.455-7.367-16.455-16.455v-38.962c0-9.088 7.367-16.454 16.455-16.454h318.612c9.087 0 16.454 7.367 16.454 16.454v38.962c.001 9.088-7.366 16.455-16.454 16.455z" fill="#bed6e3"/></g><g><path d="m488.034 430.665h-30c9.087 0 16.454 7.367 16.454 16.454v38.962c0 9.088-7.367 16.454-16.454 16.454h30c9.087 0 16.454-7.367 16.454-16.454v-38.961c.001-9.088-7.366-16.455-16.454-16.455z" fill="#a4bbcf"/></g><g><path d="m488.034 358.794h-30c9.087 0 16.454 7.367 16.454 16.454v38.962c0 9.088-7.367 16.454-16.454 16.454h30c9.087 0 16.454-7.367 16.454-16.454v-38.962c.001-9.087-7.366-16.454-16.454-16.454z" fill="#90a2bb"/></g><g><path d="m488.034 286.923h-30c9.087 0 16.454 7.367 16.454 16.454v38.962c0 9.088-7.367 16.455-16.454 16.455h30c9.087 0 16.454-7.367 16.454-16.455v-38.962c.001-9.087-7.366-16.454-16.454-16.454z" fill="#a4bbcf"/></g><g><path d="m347.581 60.404c19.931-24.701 13.26-49.876 13.26-49.876s-23.894-6.34-47.965 11.761c-77.049-17.231-156.962-17.207-234.002.076-24.106-18.197-48.069-11.837-48.069-11.837s-6.762 25.495 13.635 50.345c-17.859 114.634-37.322 231.099-27.659 346.16 1.944 23.143-.756 46.353-7.033 68.713-4.263 15.184-1.185 26.79-1.185 26.79h374.52s3.035-11.455-1.107-26.492c-6.092-22.116-8.723-45.047-6.77-67.904 9.877-115.578-9.641-232.584-27.625-347.736z" fill="#ecf3fc"/></g><g><path d="m381.977 476.044c-6.092-22.116-8.723-45.047-6.77-67.904 9.876-115.577-9.642-232.584-27.626-347.736 19.931-24.701 13.26-49.876 13.26-49.876s-13.058-3.453-29.588 2.049c1.084 6.464 2.889 27.302-13.672 47.827 17.984 115.152 37.502 232.158 27.626 347.736-1.953 22.857.678 45.787 6.77 67.904 4.142 15.037 1.107 26.492 1.107 26.492h30c-.001 0 3.034-11.455-1.107-26.492z" fill="#bed6e3"/></g><g><path d="m110.19 276.978h-78.777l-16.372 28.357c-1.41 33.966-1.099 67.892 1.74 101.697 1.943 23.143-.756 46.353-7.034 68.713-4.263 15.184-1.185 26.79-1.185 26.79h231.853z" fill="#a4bbcf"/></g><g><path d="m360.841 10.528s-23.894-6.34-47.965 11.761c-4.908-1.098-9.827-2.123-14.757-3.081l-128.795 223.08h203.315c-5.818-60.822-15.645-121.607-25.059-181.883 19.931-24.702 13.261-49.877 13.261-49.877z" fill="#a4bbcf"/></g><g><path d="m377.407 315.549c-1.04-33.616-3.837-67.277-7.672-100.906h-347.367c-3.841 33.629-6.645 67.291-7.691 100.906z" fill="#ef879b"/></g><g><path d="m347.581 60.404c19.931-24.701 13.26-49.876 13.26-49.876s-13.058-3.453-29.588 2.049c1.084 6.464 2.889 27.302-13.672 47.827 9.414 60.277 19.24 121.061 25.059 181.883h30c-5.819-60.821-15.646-121.606-25.059-181.883z" fill="#90a2bb"/></g><g><path d="m369.735 214.643h-30c3.835 33.629 6.632 67.291 7.672 100.906h30c-1.04-33.616-3.837-67.277-7.672-100.906z" fill="#ec6a85"/></g><g><path d="m511.989 303.378c0-13.208-10.746-23.954-23.955-23.954h-39.524c-4.143 0-7.5 3.358-7.5 7.5s3.357 7.5 7.5 7.5h39.524c4.938 0 8.955 4.017 8.955 8.954v38.962c0 4.938-4.018 8.955-8.955 8.955h-102.732c.17-18.939-.292-37.904-1.273-56.871h34.48c4.143 0 7.5-3.358 7.5-7.5s-3.357-7.5-7.5-7.5h-35.363c-4.524-69.219-15.341-138.346-25.945-206.053l-1.712-10.939c19.534-26.461 12.904-52.684 12.603-53.823-.69-2.604-2.723-4.638-5.326-5.329-1.081-.286-25.853-6.57-51.539 10.967-75.553-16.394-155.164-16.369-230.698.071-25.723-17.627-50.565-11.326-51.648-11.039-2.602.691-4.635 2.724-5.325 5.326-.306 1.154-7.025 27.705 12.972 54.333l-1.838 11.768c-17.06 109.147-34.7 222.01-25.382 332.954 1.798 21.404-.483 43.629-6.78 66.058-4.762 16.96-1.361 30.185-1.214 30.74.872 3.288 3.848 5.577 7.25 5.577h115.389c4.142 0 7.5-3.358 7.5-7.5s-3.358-7.5-7.5-7.5h-108.864c-.253-4.155-.079-10.285 1.88-17.263 6.783-24.161 9.234-48.172 7.286-71.368-2.341-27.88-2.935-55.943-2.251-84.08h105.707l99.715 172.711h-73.473c-4.142 0-7.5 3.358-7.5 7.5s3.358 7.5 7.5 7.5h334.082c13.209 0 23.955-10.746 23.955-23.955v-38.96c0-6.368-2.503-12.159-6.57-16.454 4.068-4.295 6.57-10.086 6.57-16.454v-38.962c0-6.368-2.503-12.159-6.57-16.454 4.068-4.295 6.57-10.086 6.57-16.455v-38.963zm-23.955 62.916c4.938 0 8.955 4.017 8.955 8.955v38.962c0 4.938-4.018 8.955-8.955 8.955h-105.952c0-4.836.191-9.636.597-14.387 1.208-14.134 1.975-28.299 2.364-42.484h102.991zm-176.795-336.686c2.143.48 4.389-.005 6.145-1.325 14.98-11.266 29.656-11.823 36.896-11.201.635 7.511.004 23.072-12.535 38.612-1.328 1.646-1.899 3.777-1.573 5.867l2.211 14.13c6.792 43.367 13.67 87.322 18.909 131.452h-163.017l103.644-179.517c3.113.636 6.221 1.289 9.32 1.982zm-282.144 192.535h61.341c4.142 0 7.5-3.358 7.5-7.5s-3.358-7.5-7.5-7.5h-59.622c5.193-43.683 11.987-87.191 18.697-130.12l2.341-14.995c.329-2.111-.258-4.262-1.614-5.913-12.89-15.704-13.531-31.445-12.879-39.028 7.247-.616 22-.057 36.997 11.263 1.758 1.327 4.012 1.814 6.16 1.332 67.2-15.075 137.821-16.734 205.782-4.999l-105.343 182.46h-60.519c-4.142 0-7.5 3.358-7.5 7.5s3.358 7.5 7.5 7.5h242.57c3.112 28.378 5.456 56.807 6.587 85.182h-347.1c1.134-28.375 3.484-56.805 6.602-85.182zm215.255 272.207-99.319-172.026h225.046c.689 28.505.071 56.935-2.342 85.176-1.95 22.827.408 46.558 7.012 70.534 1.894 6.873 2.06 12.904 1.812 17.001h-131.858c-.104-.231-.221-.46-.351-.685zm252.639-8.269c0 4.938-4.018 8.955-8.955 8.955h-96.46c.251-5.406-.096-12.742-2.367-20.984-3.327-12.083-5.486-24.077-6.485-35.887h105.312c4.938 0 8.955 4.017 8.955 8.954z"/><path d="m96.373 111.839h66.645c4.142 0 7.5-3.358 7.5-7.5s-3.358-7.5-7.5-7.5h-66.645c-4.142 0-7.5 3.358-7.5 7.5s3.358 7.5 7.5 7.5z"/><path d="m170.518 138.57c0-4.142-3.358-7.5-7.5-7.5h-66.645c-4.142 0-7.5 3.358-7.5 7.5s3.358 7.5 7.5 7.5h66.645c4.142 0 7.5-3.358 7.5-7.5z"/><path d="m322.36 365.142h-66.646c-4.142 0-7.5 3.358-7.5 7.5s3.358 7.5 7.5 7.5h66.646c4.143 0 7.5-3.358 7.5-7.5 0-4.143-3.357-7.5-7.5-7.5z"/><path d="m322.36 399.373h-66.646c-4.142 0-7.5 3.358-7.5 7.5s3.358 7.5 7.5 7.5h66.646c4.143 0 7.5-3.358 7.5-7.5s-3.357-7.5-7.5-7.5z"/></g></g></svg>