<svg id="Capa_1" enable-background="new 0 0 512 512" height="512" viewBox="0 0 512 512" width="512" xmlns="http://www.w3.org/2000/svg"><g><g><path d="m54.729 486.602c0 14.027 11.371 25.398 25.398 25.398h162.516c14.027 0 25.398-11.371 25.398-25.398v-5.508l-123.143-29.784-90.169 29.784z" fill="#daf1f4"/></g><g><path d="m268.039 211.77c0-24.465-6.006-48.556-17.49-70.159l-17.354-32.644c-7.044-13.25-10.727-28.026-10.727-43.031v-26.562h-122.17v26.562c0 15.006-3.683 29.782-10.727 43.031l-17.354 32.644c-11.484 21.602-17.49 45.694-17.49 70.159v20.948h213.311v-20.948z" fill="#ecf9f9"/></g><g><path d="m160.75 481.095c-14.392 6.614-30.408 10.302-47.285 10.302h-58.285c2.242 11.734 12.558 20.603 24.946 20.603h162.516c14.027 0 25.398-11.371 25.398-25.398v-5.508h-107.29z" fill="#b9e4ef"/></g><g><path d="m268.039 211.77c0-24.465-6.006-48.556-17.49-70.159l-17.354-32.644c-7.044-13.25-10.727-28.026-10.727-43.031v-26.562l-61.085-11.286-61.085 11.286v26.562c0 15.006-3.683 29.782-10.727 43.031l-17.354 32.644c-11.484 21.602-17.49 45.694-17.49 70.159v20.948l110.678 23.282 102.635-23.282v-20.948z" fill="#ecf9f9"/></g><g><path d="m250.55 141.611-17.354-32.644c-7.044-13.25-10.727-28.026-10.727-43.031v-26.562h-41.207v5.958c0 15.006 3.683 29.782 10.727 43.031l17.354 32.644c11.484 21.602 17.489 45.694 17.489 70.159v41.552h41.207v-20.948c0-24.465-6.005-48.556-17.489-70.159z" fill="#daf1f4"/></g><g><path d="m307.336 479.391.974 28.597c.076 2.237 1.912 4.012 4.151 4.012h131.439c2.239 0 4.075-1.774 4.151-4.012l.974-28.597-70.844-30.698z" fill="#daf1f4"/></g><g><path d="m457.269 237.268c.08-2.348-1.802-4.295-4.151-4.295h-149.876c-2.349 0-4.231 1.947-4.151 4.295l2.757 80.967 76.332 30.978 76.332-30.978z" fill="#ecf9f9"/></g><g><path d="m399.894 479.391c-6.202 7.353-15.481 12.006-25.816 12.006h-66.333l.565 16.592c.076 2.238 1.912 4.012 4.151 4.012h131.439c2.239 0 4.075-1.774 4.151-4.012l.974-28.597h-49.131z" fill="#b9e4ef"/></g><g><path d="m453.118 232.974h-37.612l-2.202 64.658-.702 20.604h41.909l2.757-80.967c.081-2.349-1.801-4.295-4.15-4.295z" fill="#daf1f4"/></g><g><path d="m82.398 197.929c-.449 0-.903-.039-1.36-.121-4.202-.746-7.003-4.757-6.257-8.958 2.415-13.606 6.909-26.652 13.354-38.777l17.354-32.644c3.127-5.882 5.735-12.111 7.75-18.515 1.282-4.069 5.619-6.329 9.69-5.051 4.07 1.281 6.331 5.619 5.051 9.69-2.299 7.305-5.275 14.414-8.846 21.13l-17.354 32.644c-5.687 10.697-9.651 22.211-11.785 34.224-.663 3.745-3.922 6.378-7.597 6.378z" fill="#fff"/></g><g><path d="m326.736 300.207c-4.146 0-7.575-3.288-7.717-7.463l-1.149-33.752c-.145-4.265 3.194-7.84 7.459-7.985 4.261-.138 7.84 3.194 7.985 7.459l1.149 33.752c.145 4.265-3.194 7.84-7.459 7.985-.09.002-.18.004-.268.004z" fill="#fff"/></g><path d="m227.944 58.209h-45.772c.744 5.246 1.942 10.417 3.578 15.453h42.194c4.267 0 7.726-3.459 7.726-7.726s-3.459-7.727-7.726-7.727z" fill="#b9e4ef"/><path d="m94.824 58.209c-4.267 0-7.726 3.459-7.726 7.726s3.459 7.726 7.726 7.726h90.926c-1.636-5.036-2.834-10.206-3.578-15.453h-87.348z" fill="#e2f4f9"/><g><path d="m224.007 0h-125.246c-2.175 0-3.937 1.763-3.937 3.937v31.499c0 2.175 1.763 3.937 3.937 3.937h125.245c2.175 0 3.937-1.763 3.937-3.937v-31.499c.001-2.174-1.762-3.937-3.936-3.937z" fill="#c6c1c8"/></g><g><path d="m224.007 0h-37.27v7.812c0 8.897-7.212 16.109-16.109 16.109h-75.804v11.515c0 2.175 1.763 3.937 3.937 3.937h125.245c2.175 0 3.937-1.763 3.937-3.937v-31.499c.001-2.174-1.762-3.937-3.936-3.937z" fill="#afaab4"/></g><g><path d="m54.729 232.718h213.311v248.377h-213.311z" fill="#fff9e2"/></g><g><path d="m226.832 232.718v145.311c0 45.734-27.081 85.143-66.082 103.066h107.29v-248.377z" fill="#fbf4c6"/></g><g><path d="m301.848 318.235 5.488 161.156h141.688l5.488-161.156z" fill="#fff9e2"/></g><g><path d="m412.603 318.235-4.786 140.552c-.268 7.857-3.205 15.011-7.922 20.604h49.13l5.488-161.156z" fill="#fbf4c6"/></g></g></svg>