<?xml version="1.0" encoding="iso-8859-1"?>
<!-- Generator: Adobe Illustrator 19.0.0, SVG Export Plug-In . SVG Version: 6.00 Build 0)  -->
<svg version="1.1" id="Layer_1" xmlns="http://www.w3.org/2000/svg" xmlns:xlink="http://www.w3.org/1999/xlink" x="0px" y="0px"
	 viewBox="0 0 511.981 511.981" style="enable-background:new 0 0 511.981 511.981;" xml:space="preserve">
<path style="fill:#CCD1D9;" d="M469.323,149.322H42.66c-17.641,0-31.999,14.359-31.999,31.999v42.663
	c0,17.647,14.358,32.006,31.999,32.006h426.663c17.624,0,31.998-14.359,31.998-32.006v-42.663
	C501.32,163.681,486.947,149.322,469.323,149.322z"/>
<g>
	<path style="fill:#AAB2BC;" d="M63.987,202.656H53.331c-5.89,0-10.671-4.773-10.671-10.671c0-5.89,4.781-10.664,10.671-10.664
		h10.656c5.89,0,10.663,4.773,10.663,10.664C74.65,197.883,69.877,202.656,63.987,202.656z"/>
	<path style="fill:#AAB2BC;" d="M63.987,223.984H53.331c-5.89,0-10.671-4.773-10.671-10.664s4.781-10.664,10.671-10.664h10.656
		c5.89,0,10.663,4.773,10.663,10.664S69.877,223.984,63.987,223.984z"/>
	<path style="fill:#AAB2BC;" d="M458.635,202.656h-10.656c-5.875,0-10.656-4.773-10.656-10.671c0-5.89,4.781-10.664,10.656-10.664
		h10.656c5.906,0,10.688,4.773,10.688,10.664C469.323,197.883,464.542,202.656,458.635,202.656z"/>
	<path style="fill:#AAB2BC;" d="M458.635,223.984h-10.656c-5.875,0-10.656-4.773-10.656-10.664s4.781-10.664,10.656-10.664h10.656
		c5.906,0,10.688,4.773,10.688,10.664S464.542,223.984,458.635,223.984z"/>
</g>
<path style="fill:#656D78;" d="M434.76,30.389C416.73,9.366,387.919,0,341.328,0H170.654c-36.545,0-65.106,10.015-84.871,29.788
	c-21.538,21.531-32.452,54.576-32.46,98.199c0,0,0,106.667,0,192c0,48.873,13.046,94.591,36.741,128.745
	c28.717,41.374,71.341,63.248,123.261,63.248h85.316c63.935,0,102.435-38.905,123.465-71.561
	c26.936-41.811,36.545-89.621,36.545-120.433V127.994C458.667,79.121,451.51,49.935,434.76,30.389z"/>
<path style="opacity:0.1;fill:#FFFFFF;enable-background:new    ;" d="M434.76,30.389C416.73,9.366,387.919,0,341.328,0h-21.344
	c46.592,0,75.42,9.366,93.435,30.389c16.748,19.546,23.904,48.732,23.904,97.605v191.993c0,30.812-9.594,78.622-36.544,120.433
	c-21.047,32.655-59.529,71.561-123.448,71.561h21.311c63.935,0,102.435-38.905,123.465-71.561
	c26.936-41.811,36.545-89.621,36.545-120.433V127.994C458.667,79.121,451.51,49.935,434.76,30.389z"/>
<g>
	<path style="fill:#4A89DC;" d="M213.325,117.323h-63.998c-5.89,0-10.671,4.773-10.671,10.664c0,5.898,4.781,10.671,10.671,10.671
		h63.998c5.891,0,10.664-4.773,10.664-10.671C223.989,122.096,219.216,117.323,213.325,117.323z"/>
	<path style="fill:#4A89DC;" d="M362.638,117.323h-63.997c-5.874,0-10.655,4.773-10.655,10.664c0,5.898,4.781,10.671,10.655,10.671
		h63.997c5.906,0,10.688-4.773,10.688-10.671C373.326,122.096,368.544,117.323,362.638,117.323z"/>
</g>
<path style="fill:#5D9CEC;" d="M383.982,127.987h-255.99c-5.891,0-10.664,4.781-10.664,10.671v127.995
	c0,5.898,4.773,10.664,10.664,10.664h255.99c5.891,0,10.656-4.766,10.656-10.664V138.658
	C394.638,132.768,389.872,127.987,383.982,127.987z"/>
<polygon style="opacity:0.1;fill:#FFFFFF;enable-background:new    ;" points="245.324,127.987 202.653,277.317 266.651,277.317 
	309.329,127.987 "/>
<g>
	<path style="fill:#434A54;" d="M383.982,85.324h-255.99c-5.891,0-10.664-4.773-10.664-10.664s4.773-10.671,10.664-10.671h255.99
		c5.891,0,10.656,4.781,10.656,10.671S389.872,85.324,383.982,85.324z"/>
	<path style="fill:#434A54;" d="M255.987,415.984c-5.891,0-10.663-4.781-10.663-10.672v-85.325c0-5.906,4.772-10.671,10.663-10.671
		s10.664,4.765,10.664,10.671v85.325C266.651,411.203,261.878,415.984,255.987,415.984z"/>
	<path style="fill:#434A54;" d="M220.864,451.107c4.164,4.156,4.164,10.905,0,15.077s-10.922,4.172-15.086,0s-4.164-10.921,0-15.077
		C209.942,446.935,216.7,446.935,220.864,451.107z"/>
	<path style="fill:#434A54;" d="M263.526,451.107c4.172,4.156,4.172,10.905,0,15.077c-4.164,4.172-10.914,4.172-15.078,0
		c-4.171-4.172-4.171-10.921,0-15.077C252.612,446.935,259.362,446.935,263.526,451.107z"/>
	<path style="fill:#434A54;" d="M306.204,451.107c4.156,4.156,4.156,10.905,0,15.077c-4.188,4.172-10.937,4.172-15.093,0
		s-4.156-10.921,0-15.077C295.267,446.935,302.016,446.935,306.204,451.107z"/>
</g>
<g>
</g>
<g>
</g>
<g>
</g>
<g>
</g>
<g>
</g>
<g>
</g>
<g>
</g>
<g>
</g>
<g>
</g>
<g>
</g>
<g>
</g>
<g>
</g>
<g>
</g>
<g>
</g>
<g>
</g>
</svg>
